<svg xmlns="http://www.w3.org/2000/svg" width="24" height="26" viewBox="0 0 24 26"><path d="M734.059,1825.2v3.075c-3.656.544-6.489,4.044-6.489,8.276v4.137a6.159,6.159,0,0,1-2.528,5.484l-1.992,1.668h8.343a3.67,3.67,0,0,0,7.314,0h8.343l-1.993-1.668a6.16,6.16,0,0,1-2.527-5.484v-4.137c0-4.233-2.833-7.732-6.49-8.276V1825.2Zm.991,24.1a1.76,1.76,0,0,1-1.669-1.458h3.34A1.76,1.76,0,0,1,735.05,1849.3Zm5.5-12.747v4.137a7.908,7.908,0,0,0,1.57,5.25H727.981a7.907,7.907,0,0,0,1.57-5.25v-4.137c0-3.56,2.466-6.457,5.5-6.457S740.548,1832.995,740.548,1836.555Z" transform="translate(-723.05 -1825.204)" fill="#52575d"/></svg>