<svg xmlns="http://www.w3.org/2000/svg" width="36" height="36" viewBox="0 0 36 36"><g transform="translate(0 0)"><path d="M735.705,1359.109a16.309,16.309,0,0,0,16.29-16.291V1341.6H736.919v-15.076h-1.214a16.29,16.29,0,1,0,0,32.58Zm-1.214-30.1v15.023h15.023a13.863,13.863,0,1,1-15.023-15.023Z" transform="translate(-719.415 -1323.109)" fill="#d0dbe5"/><path d="M756.389,1339.886a16.8,16.8,0,0,0-16.778-16.777h-1.25v18.027h18.028Zm-15.528-1.25v-12.973a14.3,14.3,0,0,1,12.973,12.973Z" transform="translate(-720.389 -1323.109)" fill="#d0dbe5"/></g></svg>