<svg xmlns="http://www.w3.org/2000/svg" width="32.436" height="26.224" viewBox="0 0 32.436 26.224"><g transform="translate(0 0)"><path d="M297.27,2238.051a5.775,5.775,0,0,0-3.577,1.249,7.244,7.244,0,1,0-.282,8.858,5.791,5.791,0,1,0,3.859-10.107Zm-9.444,10.24a4.75,4.75,0,1,1,4.75-4.749A4.755,4.755,0,0,1,287.826,2248.291Zm9.444-1.153a3.255,3.255,0,0,1-2.578-1.286,7.081,7.081,0,0,0,.131-4.176,3.283,3.283,0,1,1,2.447,5.462Z" transform="translate(-274.941 -2236.292)" fill="#d0dbe5"/><path d="M297.27,2249.869a11.119,11.119,0,0,0-6.86,2.251,15.53,15.53,0,0,0-2.584-.221c-6.48,0-11.932,3.951-12.681,9.19l-.2,1.427h25.77l-.2-1.427a8.833,8.833,0,0,0-.795-2.572h7.665l-.2-1.427C306.584,2252.974,302.327,2249.869,297.27,2249.869ZM278,2260.016c1.284-3.285,5.227-5.617,9.829-5.617s8.544,2.332,9.829,5.617Zm23.865-4h-3.868a12.5,12.5,0,0,0-4.291-2.944,9.32,9.32,0,0,1,3.567-.7c3.161,0,5.893,1.493,6.977,3.648Z" transform="translate(-274.941 -2236.292)" fill="#d0dbe5"/></g></svg>