<svg xmlns="http://www.w3.org/2000/svg" xmlns:xlink="http://www.w3.org/1999/xlink" width="352" height="80" viewBox="0 0 352 80">
  <defs>
    <clipPath id="clip-path">
      <rect width="352" height="80" fill="none"/>
    </clipPath>
    <linearGradient id="linear-gradient" x1="0.5" x2="0.5" y2="1" gradientUnits="objectBoundingBox">
      <stop offset="0" stop-color="#fff" stop-opacity="0"/>
      <stop offset="0.33" stop-color="#fff" stop-opacity="0.847"/>
      <stop offset="1" stop-color="#fff"/>
    </linearGradient>
  </defs>
  <g id="load_more" data-name="load more" clip-path="url(#clip-path)">
    <path id="gradient" d="M0,0H352a0,0,0,0,1,0,0V72a8,8,0,0,1-8,8H8a8,8,0,0,1-8-8V0A0,0,0,0,1,0,0Z" fill="url(#linear-gradient)"/>
    <g id="load_more-2" data-name="load more" transform="translate(-1404.5 -421.5)">
      <g id="arrow" transform="translate(842.57 -150.174)">
        <g id="Tracé_54" data-name="Tracé 54" transform="translate(723.43 599.174)" fill="#fff">
          <path d="M 17 35 C 14.57046031951904 35 12.21306037902832 34.52394866943359 9.993280410766602 33.58506011962891 C 7.849730014801025 32.67842102050781 5.924839973449707 31.38068962097168 4.272079944610596 29.72792053222656 C 2.619309902191162 28.07515907287598 1.321580052375793 26.15027046203613 0.4149399995803833 24.0067195892334 C -0.5239499807357788 21.78693962097168 -1 19.42954063415527 -1 17 C -1 14.57046031951904 -0.5239499807357788 12.21306037902832 0.4149399995803833 9.993280410766602 C 1.321580052375793 7.849730014801025 2.619309902191162 5.924839973449707 4.272079944610596 4.272079944610596 C 5.924839973449707 2.619309902191162 7.849730014801025 1.321580052375793 9.993280410766602 0.4149399995803833 C 12.21306037902832 -0.5239499807357788 14.57046031951904 -1 17 -1 C 19.42954063415527 -1 21.78693962097168 -0.5239499807357788 24.0067195892334 0.4149399995803833 C 26.15027046203613 1.321580052375793 28.07515907287598 2.619309902191162 29.72792053222656 4.272079944610596 C 31.38068962097168 5.924839973449707 32.67842102050781 7.849730014801025 33.58506011962891 9.993280410766602 C 34.52394866943359 12.21306037902832 35 14.57046031951904 35 17 C 35 19.42954063415527 34.52394866943359 21.78693962097168 33.58506011962891 24.0067195892334 C 32.67842102050781 26.15027046203613 31.38068962097168 28.07515907287598 29.72792053222656 29.72792053222656 C 28.07515907287598 31.38068962097168 26.15027046203613 32.67842102050781 24.0067195892334 33.58506011962891 C 21.78693962097168 34.52394866943359 19.42954063415527 35 17 35 Z" stroke="none"/>
          <path d="M 17 0 C 7.611160278320312 0 0 7.611160278320312 0 17 C 0 26.38883972167969 7.611160278320312 34 17 34 C 26.38883972167969 34 34 26.38883972167969 34 17 C 34 7.611160278320312 26.38883972167969 0 17 0 M 17 -2 C 19.56410026550293 -2 22.05257034301758 -1.497371673583984 24.39627075195312 -0.5060615539550781 C 26.65901947021484 0.4510002136230469 28.69075012207031 1.820690155029297 30.43502998352051 3.564970016479492 C 32.1793098449707 5.309249877929688 33.54899978637695 7.340980529785156 34.50606155395508 9.603729248046875 C 35.49737167358398 11.94742965698242 36 14.43589973449707 36 17 C 36 19.56410026550293 35.49737167358398 22.05257034301758 34.50606155395508 24.39627075195312 C 33.54899978637695 26.65901947021484 32.1793098449707 28.69075012207031 30.43502998352051 30.43502998352051 C 28.69075012207031 32.1793098449707 26.65901947021484 33.54899978637695 24.39627075195312 34.50606155395508 C 22.05257034301758 35.49737167358398 19.56410026550293 36 17 36 C 14.43589973449707 36 11.94742965698242 35.49737167358398 9.603729248046875 34.50606155395508 C 7.340980529785156 33.54899978637695 5.309249877929688 32.1793098449707 3.564970016479492 30.43502998352051 C 1.820690155029297 28.69075012207031 0.4510002136230469 26.65901947021484 -0.5060615539550781 24.39627075195312 C -1.497371673583984 22.05257034301758 -2 19.56410026550293 -2 17 C -2 14.43589973449707 -1.497371673583984 11.94742965698242 -0.5060615539550781 9.603729248046875 C 0.4510002136230469 7.340980529785156 1.820690155029297 5.309249877929688 3.564970016479492 3.564970016479492 C 5.309249877929688 1.820690155029297 7.340980529785156 0.4510002136230469 9.603729248046875 -0.5060615539550781 C 11.94742965698242 -1.497371673583984 14.43589973449707 -2 17 -2 Z" stroke="none" fill="#e3e9ef"/>
        </g>
        <path id="Tracé_53" data-name="Tracé 53" d="M739.71,621.858l-6.936-6.886-2.065,2.057,9,8.943,9-8.943-2.065-2.057Z" transform="translate(0.721 -3.798)" fill="#b3b8bd"/>
      </g>
    </g>
  </g>
</svg>
