<svg xmlns="http://www.w3.org/2000/svg" width="38.438" height="28.007" viewBox="0 0 38.438 28.007"><rect width="17.013" height="2.5" transform="translate(6.55 11.501)" fill="#d0dbe5"/><rect width="10.102" height="2.5" transform="translate(6.55 16.046)" fill="#d0dbe5"/><rect width="1.772" height="2.5" transform="translate(18.512 16.046)" fill="#d0dbe5"/><path d="M388.965,1327.882c-4.28,0-7.985,1.806-9.612,4.579a20.91,20.91,0,0,0-3.253-.259c-8.327,0-15.1,4.853-15.1,10.819a9.026,9.026,0,0,0,2.979,6.48c-.124,1.666-.262,3.908-.262,3.908l-.154,2.48,2.083-1.355c.913-.594,2.38-1.528,3.2-2.01a20.111,20.111,0,0,0,7.257,1.317c8.326,0,15.1-4.853,15.1-10.82,0-.024,0-.048-.006-.073a13.08,13.08,0,0,0,2.561-.655c.535.323,1.361.848,1.942,1.226l2.083,1.355-.154-2.48s-.083-1.33-.161-2.415a6.366,6.366,0,0,0,1.971-4.476C399.437,1331.229,394.837,1327.882,388.965,1327.882ZM376.1,1351.341a17.366,17.366,0,0,1-6.842-1.349l-.53-.229-.519.256c-.362.178-1.1.624-1.838,1.086.047-.7.1-1.435.145-2.018l.05-.63-.478-.414a6.779,6.779,0,0,1-2.589-5.022c0-4.587,5.652-8.319,12.6-8.319s12.6,3.732,12.6,8.319S383.048,1351.341,376.1,1351.341Zm19.257-12.81-.477.413.049.63c.013.163.027.343.04.532-.233-.138-.433-.252-.566-.318l-.518-.255-.531.229a10.633,10.633,0,0,1-2.588.726c-1.127-3.345-4.414-6.093-8.755-7.421a9.393,9.393,0,0,1,6.954-2.685c4.321,0,7.972,2.345,7.972,5.121A4.109,4.109,0,0,1,395.357,1338.531Z" transform="translate(-360.999 -1327.882)" fill="#d0dbe5"/></svg>